<?xml version="1.0" encoding="UTF-8"?>
<svg id="Layer_1" data-name="Layer 1" xmlns="http://www.w3.org/2000/svg" width="105.182" height="55.969" viewBox="0 0 3581.79 3465.09">
  <defs>
    <style>
      .cls-1 {
        fill: #fff;
      }
    </style>
  </defs>
  <path class="cls-1" d="M834.97,1284.4l148.52,440.39h.01l103.99,308.31c-140.03,10.96-250.62,128.41-250.62,271.18,0,150,122.04,272.07,272.04,272.07h1974.73c46.87,0,84.9-38.03,84.9-84.93s-38.04-84.94-84.9-84.94H1108.91c-56.35,0-102.17-45.85-102.17-102.2s45.83-102.14,102.17-102.14h1756.64c37.1,0,69.92-24.08,81.05-59.49l135.32-430.56h.02l124.01-394.67,210.06-668.4c8.13-25.77,3.45-53.9-12.59-75.69-15.97-21.82-41.43-34.7-68.46-34.7H762.67L600.5,57.8C588.59,22.48,553.6-1.1,517.81,.04L82.71,11.47C35.81,12.74-1.21,51.74,.03,98.6c1.26,46.88,38.41,83.68,87.13,82.69l372.43-9.8,292.33,866.69,83.04,246.21Zm2122.08,258.58l-483.06,2.93,39.4-323.95h544.54l-100.88,321.02Zm-654.28,3.97l-614.42,3.73-42.89-328.72h696.83l-39.52,324.99Zm-785.56,4.77l-412,2.5-.72-2.13c-.08-.23-.15-.46-.22-.69l-111.12-329.44h481.02l43.03,329.76Zm-354.83,171.99l376.98-2.28,40.56,310.83h-313.47l-104.07-308.55Zm790.32,308.55h-201.5l-40.7-311.87,571.6-3.46-38.35,315.33h-291.05Zm850.59,0h-388.44l38.47-316.36,450.24-2.72-100.28,319.09Zm308.03-980.18h-577.27l41.78-343.57h643.46l-107.97,343.57Zm-706.59-343.57l-41.78,343.57h-739.66l-44.83-343.57h826.27Zm-997.56,0l44.83,343.57H935.85l-115.88-343.57h587.2Z"/>
  <path class="cls-1" d="M1013.85,2645.33c-225.98,0-409.88,183.89-409.88,409.92s183.9,409.84,409.88,409.84,409.88-183.86,409.88-409.84-183.89-409.92-409.88-409.92Zm0,649.89c-132.32,0-240-107.65-240-239.97s107.67-240.04,240-240.04,240.01,107.66,240.01,240.04-107.67,239.97-240.01,239.97Z"/>
  <path class="cls-1" d="M3171.95,2645.33c-225.99,0-409.86,183.89-409.86,409.92s183.86,409.84,409.86,409.84,409.84-183.86,409.84-409.84-183.86-409.92-409.84-409.92Zm0,649.89c-132.38,0-240.04-107.65-240.04-239.97s107.66-240.04,240.04-240.04,239.97,107.66,239.97,240.04-107.61,239.97-239.97,239.97Z"/>
  <path class="cls-1" d="M2686.25,2755.46c-391.77-128.44-793.13-127.78-1192.89,1.87-44.61,14.49-69.04,62.38-54.57,107,11.65,35.9,44.95,58.72,80.75,58.72,8.69,0,17.53-1.33,26.25-4.15,364.77-118.34,730.68-119.11,1087.56-2.04,44.48,14.75,92.52-9.65,107.09-54.25,14.62-44.57-9.61-92.54-54.2-107.14Z"/>
</svg>